<mxfile host="Electron" modified="2024-02-22T13:58:03.257Z" agent="Mozilla/5.0 (X11; Linux x86_64) AppleWebKit/537.36 (KHTML, like Gecko) draw.io/23.1.5 Chrome/120.0.6099.109 Electron/28.1.0 Safari/537.36" etag="S7oV_aFMRVhEtC-bfG8v" version="23.1.5" type="device">
  <diagram name="Page-1" id="b520641d-4fe3-3701-9064-5fc419738815">
    <mxGraphModel dx="925" dy="661" grid="1" gridSize="10" guides="1" tooltips="1" connect="1" arrows="1" fold="1" page="1" pageScale="1" pageWidth="1100" pageHeight="850" background="none" math="0" shadow="0">
      <root>
        <mxCell id="0" />
        <mxCell id="1" parent="0" />
        <mxCell id="MM2qQNJEAK_yeIbTaFc--17" style="edgeStyle=orthogonalEdgeStyle;rounded=0;orthogonalLoop=1;jettySize=auto;html=1;exitX=1;exitY=0.5;exitDx=0;exitDy=0;exitPerimeter=0;entryX=0;entryY=0.5;entryDx=0;entryDy=0;" edge="1" parent="1" source="MM2qQNJEAK_yeIbTaFc--1" target="MM2qQNJEAK_yeIbTaFc--3">
          <mxGeometry relative="1" as="geometry" />
        </mxCell>
        <mxCell id="MM2qQNJEAK_yeIbTaFc--26" value="Тип договора" style="edgeLabel;html=1;align=center;verticalAlign=middle;resizable=0;points=[];" vertex="1" connectable="0" parent="MM2qQNJEAK_yeIbTaFc--17">
          <mxGeometry x="0.4155" y="1" relative="1" as="geometry">
            <mxPoint as="offset" />
          </mxGeometry>
        </mxCell>
        <mxCell id="MM2qQNJEAK_yeIbTaFc--18" style="edgeStyle=orthogonalEdgeStyle;rounded=0;orthogonalLoop=1;jettySize=auto;html=1;exitX=1;exitY=0.5;exitDx=0;exitDy=0;exitPerimeter=0;entryX=0.082;entryY=0.216;entryDx=0;entryDy=0;entryPerimeter=0;" edge="1" parent="1" source="MM2qQNJEAK_yeIbTaFc--1" target="MM2qQNJEAK_yeIbTaFc--4">
          <mxGeometry relative="1" as="geometry">
            <Array as="points">
              <mxPoint x="270" y="100" />
              <mxPoint x="270" y="200" />
              <mxPoint x="430" y="200" />
              <mxPoint x="430" y="202" />
            </Array>
          </mxGeometry>
        </mxCell>
        <mxCell id="MM2qQNJEAK_yeIbTaFc--28" value="Дата начала&lt;br&gt;&amp;nbsp;действия&lt;br&gt;договора" style="edgeLabel;html=1;align=center;verticalAlign=middle;resizable=0;points=[];" vertex="1" connectable="0" parent="MM2qQNJEAK_yeIbTaFc--18">
          <mxGeometry x="0.5545" y="1" relative="1" as="geometry">
            <mxPoint as="offset" />
          </mxGeometry>
        </mxCell>
        <mxCell id="MM2qQNJEAK_yeIbTaFc--20" style="edgeStyle=orthogonalEdgeStyle;rounded=0;orthogonalLoop=1;jettySize=auto;html=1;exitX=1;exitY=0.5;exitDx=0;exitDy=0;exitPerimeter=0;entryX=0;entryY=0.5;entryDx=0;entryDy=0;" edge="1" parent="1" source="MM2qQNJEAK_yeIbTaFc--1" target="MM2qQNJEAK_yeIbTaFc--6">
          <mxGeometry relative="1" as="geometry" />
        </mxCell>
        <mxCell id="MM2qQNJEAK_yeIbTaFc--32" value="Сумма&lt;br&gt;внесения&lt;br&gt;договора" style="edgeLabel;html=1;align=center;verticalAlign=middle;resizable=0;points=[];" vertex="1" connectable="0" parent="MM2qQNJEAK_yeIbTaFc--20">
          <mxGeometry x="0.6762" relative="1" as="geometry">
            <mxPoint x="35" as="offset" />
          </mxGeometry>
        </mxCell>
        <mxCell id="MM2qQNJEAK_yeIbTaFc--1" value="" style="strokeWidth=2;html=1;shape=mxgraph.flowchart.start_2;whiteSpace=wrap;strokeColor=none;fillColor=none;" vertex="1" parent="1">
          <mxGeometry x="70" y="80" width="40" height="40" as="geometry" />
        </mxCell>
        <mxCell id="MM2qQNJEAK_yeIbTaFc--11" style="edgeStyle=orthogonalEdgeStyle;rounded=0;orthogonalLoop=1;jettySize=auto;html=1;exitX=1;exitY=0.5;exitDx=0;exitDy=0;exitPerimeter=0;entryX=0;entryY=0.5;entryDx=0;entryDy=0;" edge="1" parent="1" source="MM2qQNJEAK_yeIbTaFc--2" target="MM2qQNJEAK_yeIbTaFc--8">
          <mxGeometry relative="1" as="geometry" />
        </mxCell>
        <mxCell id="MM2qQNJEAK_yeIbTaFc--25" value="Данные клиента" style="edgeLabel;html=1;align=center;verticalAlign=middle;resizable=0;points=[];" vertex="1" connectable="0" parent="MM2qQNJEAK_yeIbTaFc--11">
          <mxGeometry x="-0.9417" y="-3" relative="1" as="geometry">
            <mxPoint as="offset" />
          </mxGeometry>
        </mxCell>
        <mxCell id="MM2qQNJEAK_yeIbTaFc--2" value="" style="strokeWidth=2;html=1;shape=mxgraph.flowchart.start_2;whiteSpace=wrap;strokeColor=none;fillColor=none;" vertex="1" parent="1">
          <mxGeometry x="10" y="710" width="40" height="40" as="geometry" />
        </mxCell>
        <mxCell id="MM2qQNJEAK_yeIbTaFc--12" style="edgeStyle=orthogonalEdgeStyle;rounded=0;orthogonalLoop=1;jettySize=auto;html=1;exitX=1;exitY=0.5;exitDx=0;exitDy=0;entryX=0.5;entryY=0;entryDx=0;entryDy=0;" edge="1" parent="1" source="MM2qQNJEAK_yeIbTaFc--3" target="MM2qQNJEAK_yeIbTaFc--8">
          <mxGeometry relative="1" as="geometry" />
        </mxCell>
        <mxCell id="MM2qQNJEAK_yeIbTaFc--34" value="Валидированный&lt;br&gt;тип договора" style="edgeLabel;html=1;align=center;verticalAlign=middle;resizable=0;points=[];" vertex="1" connectable="0" parent="MM2qQNJEAK_yeIbTaFc--12">
          <mxGeometry x="-0.7057" y="2" relative="1" as="geometry">
            <mxPoint as="offset" />
          </mxGeometry>
        </mxCell>
        <mxCell id="MM2qQNJEAK_yeIbTaFc--3" value="Валидация типа договора" style="ellipse;whiteSpace=wrap;html=1;aspect=fixed;" vertex="1" parent="1">
          <mxGeometry x="430" y="51" width="100" height="100" as="geometry" />
        </mxCell>
        <mxCell id="MM2qQNJEAK_yeIbTaFc--13" style="edgeStyle=orthogonalEdgeStyle;rounded=0;orthogonalLoop=1;jettySize=auto;html=1;exitX=1;exitY=0.5;exitDx=0;exitDy=0;entryX=0.5;entryY=0;entryDx=0;entryDy=0;" edge="1" parent="1" source="MM2qQNJEAK_yeIbTaFc--4" target="MM2qQNJEAK_yeIbTaFc--8">
          <mxGeometry relative="1" as="geometry" />
        </mxCell>
        <mxCell id="MM2qQNJEAK_yeIbTaFc--35" value="Валидированный&lt;br&gt;срок действия&lt;br&gt;договора" style="edgeLabel;html=1;align=center;verticalAlign=middle;resizable=0;points=[];" vertex="1" connectable="0" parent="MM2qQNJEAK_yeIbTaFc--13">
          <mxGeometry x="-0.556" y="3" relative="1" as="geometry">
            <mxPoint as="offset" />
          </mxGeometry>
        </mxCell>
        <mxCell id="MM2qQNJEAK_yeIbTaFc--4" value="Валидация срока действия договора" style="ellipse;whiteSpace=wrap;html=1;aspect=fixed;" vertex="1" parent="1">
          <mxGeometry x="430" y="180" width="100" height="100" as="geometry" />
        </mxCell>
        <mxCell id="MM2qQNJEAK_yeIbTaFc--14" style="edgeStyle=orthogonalEdgeStyle;rounded=0;orthogonalLoop=1;jettySize=auto;html=1;exitX=1;exitY=0.5;exitDx=0;exitDy=0;entryX=0.5;entryY=0;entryDx=0;entryDy=0;" edge="1" parent="1" source="MM2qQNJEAK_yeIbTaFc--5" target="MM2qQNJEAK_yeIbTaFc--8">
          <mxGeometry relative="1" as="geometry" />
        </mxCell>
        <mxCell id="MM2qQNJEAK_yeIbTaFc--36" value="Валидированный&lt;br&gt;тип программы&lt;br&gt;договора" style="edgeLabel;html=1;align=center;verticalAlign=middle;resizable=0;points=[];" vertex="1" connectable="0" parent="MM2qQNJEAK_yeIbTaFc--14">
          <mxGeometry x="-0.4146" y="1" relative="1" as="geometry">
            <mxPoint as="offset" />
          </mxGeometry>
        </mxCell>
        <mxCell id="MM2qQNJEAK_yeIbTaFc--5" value="Валидация программы договора" style="ellipse;whiteSpace=wrap;html=1;aspect=fixed;" vertex="1" parent="1">
          <mxGeometry x="430" y="320" width="100" height="100" as="geometry" />
        </mxCell>
        <mxCell id="MM2qQNJEAK_yeIbTaFc--15" style="edgeStyle=orthogonalEdgeStyle;rounded=0;orthogonalLoop=1;jettySize=auto;html=1;exitX=1;exitY=0.5;exitDx=0;exitDy=0;entryX=0.5;entryY=0;entryDx=0;entryDy=0;" edge="1" parent="1" source="MM2qQNJEAK_yeIbTaFc--6" target="MM2qQNJEAK_yeIbTaFc--8">
          <mxGeometry relative="1" as="geometry" />
        </mxCell>
        <mxCell id="MM2qQNJEAK_yeIbTaFc--37" value="Преобразованная&lt;br&gt;сумма внесения" style="edgeLabel;html=1;align=center;verticalAlign=middle;resizable=0;points=[];" vertex="1" connectable="0" parent="MM2qQNJEAK_yeIbTaFc--15">
          <mxGeometry x="-0.3948" y="4" relative="1" as="geometry">
            <mxPoint as="offset" />
          </mxGeometry>
        </mxCell>
        <mxCell id="MM2qQNJEAK_yeIbTaFc--6" value="Преобразование суммы внесения" style="ellipse;whiteSpace=wrap;html=1;aspect=fixed;" vertex="1" parent="1">
          <mxGeometry x="430" y="440" width="100" height="100" as="geometry" />
        </mxCell>
        <mxCell id="MM2qQNJEAK_yeIbTaFc--16" style="edgeStyle=orthogonalEdgeStyle;rounded=0;orthogonalLoop=1;jettySize=auto;html=1;exitX=1;exitY=0.5;exitDx=0;exitDy=0;entryX=0.5;entryY=0;entryDx=0;entryDy=0;" edge="1" parent="1" source="MM2qQNJEAK_yeIbTaFc--7" target="MM2qQNJEAK_yeIbTaFc--8">
          <mxGeometry relative="1" as="geometry" />
        </mxCell>
        <mxCell id="MM2qQNJEAK_yeIbTaFc--38" value="Преобразованный&lt;br&gt;процент договора" style="edgeLabel;html=1;align=center;verticalAlign=middle;resizable=0;points=[];" vertex="1" connectable="0" parent="MM2qQNJEAK_yeIbTaFc--16">
          <mxGeometry x="-0.0997" y="-1" relative="1" as="geometry">
            <mxPoint x="-1" as="offset" />
          </mxGeometry>
        </mxCell>
        <mxCell id="MM2qQNJEAK_yeIbTaFc--7" value="Преобразование процента в договоре" style="ellipse;whiteSpace=wrap;html=1;aspect=fixed;" vertex="1" parent="1">
          <mxGeometry x="430" y="560" width="100" height="100" as="geometry" />
        </mxCell>
        <mxCell id="MM2qQNJEAK_yeIbTaFc--8" value="Создание договора" style="ellipse;whiteSpace=wrap;html=1;aspect=fixed;" vertex="1" parent="1">
          <mxGeometry x="750" y="686" width="90" height="90" as="geometry" />
        </mxCell>
        <mxCell id="MM2qQNJEAK_yeIbTaFc--9" value="" style="strokeWidth=2;html=1;shape=mxgraph.flowchart.start_2;whiteSpace=wrap;fillColor=none;strokeColor=none;" vertex="1" parent="1">
          <mxGeometry x="1050" y="710" width="40" height="40" as="geometry" />
        </mxCell>
        <mxCell id="MM2qQNJEAK_yeIbTaFc--10" style="edgeStyle=orthogonalEdgeStyle;rounded=0;orthogonalLoop=1;jettySize=auto;html=1;exitX=1;exitY=0.5;exitDx=0;exitDy=0;entryX=0;entryY=0.5;entryDx=0;entryDy=0;entryPerimeter=0;" edge="1" parent="1" source="MM2qQNJEAK_yeIbTaFc--8" target="MM2qQNJEAK_yeIbTaFc--9">
          <mxGeometry relative="1" as="geometry" />
        </mxCell>
        <mxCell id="MM2qQNJEAK_yeIbTaFc--39" value="Валидированные&lt;br&gt;данные договора" style="edgeLabel;html=1;align=center;verticalAlign=middle;resizable=0;points=[];" vertex="1" connectable="0" parent="MM2qQNJEAK_yeIbTaFc--10">
          <mxGeometry x="0.2845" y="-1" relative="1" as="geometry">
            <mxPoint as="offset" />
          </mxGeometry>
        </mxCell>
        <mxCell id="MM2qQNJEAK_yeIbTaFc--19" style="edgeStyle=orthogonalEdgeStyle;rounded=0;orthogonalLoop=1;jettySize=auto;html=1;exitX=1;exitY=0.5;exitDx=0;exitDy=0;exitPerimeter=0;entryX=0.008;entryY=0.602;entryDx=0;entryDy=0;entryPerimeter=0;" edge="1" parent="1" source="MM2qQNJEAK_yeIbTaFc--1" target="MM2qQNJEAK_yeIbTaFc--5">
          <mxGeometry relative="1" as="geometry" />
        </mxCell>
        <mxCell id="MM2qQNJEAK_yeIbTaFc--31" value="Тип&amp;nbsp;&lt;br&gt;программы&lt;br&gt;договора" style="edgeLabel;html=1;align=center;verticalAlign=middle;resizable=0;points=[];" vertex="1" connectable="0" parent="MM2qQNJEAK_yeIbTaFc--19">
          <mxGeometry x="0.7313" y="-1" relative="1" as="geometry">
            <mxPoint as="offset" />
          </mxGeometry>
        </mxCell>
        <mxCell id="MM2qQNJEAK_yeIbTaFc--21" style="edgeStyle=orthogonalEdgeStyle;rounded=0;orthogonalLoop=1;jettySize=auto;html=1;exitX=1;exitY=0.5;exitDx=0;exitDy=0;exitPerimeter=0;entryX=-0.003;entryY=0.697;entryDx=0;entryDy=0;entryPerimeter=0;" edge="1" parent="1" source="MM2qQNJEAK_yeIbTaFc--1" target="MM2qQNJEAK_yeIbTaFc--7">
          <mxGeometry relative="1" as="geometry" />
        </mxCell>
        <mxCell id="MM2qQNJEAK_yeIbTaFc--33" value="Процент&lt;br&gt;договора" style="edgeLabel;html=1;align=center;verticalAlign=middle;resizable=0;points=[];" vertex="1" connectable="0" parent="MM2qQNJEAK_yeIbTaFc--21">
          <mxGeometry x="0.8454" y="2" relative="1" as="geometry">
            <mxPoint as="offset" />
          </mxGeometry>
        </mxCell>
        <mxCell id="MM2qQNJEAK_yeIbTaFc--27" style="edgeStyle=orthogonalEdgeStyle;rounded=0;orthogonalLoop=1;jettySize=auto;html=1;exitX=1;exitY=0.5;exitDx=0;exitDy=0;" edge="1" parent="1" source="MM2qQNJEAK_yeIbTaFc--22">
          <mxGeometry relative="1" as="geometry">
            <mxPoint x="440" y="260" as="targetPoint" />
            <Array as="points">
              <mxPoint x="270" y="100" />
              <mxPoint x="270" y="260" />
            </Array>
          </mxGeometry>
        </mxCell>
        <mxCell id="MM2qQNJEAK_yeIbTaFc--29" value="Дата конца&lt;br&gt;действия&lt;br&gt;договора" style="edgeLabel;html=1;align=center;verticalAlign=middle;resizable=0;points=[];" vertex="1" connectable="0" parent="MM2qQNJEAK_yeIbTaFc--27">
          <mxGeometry x="0.5921" y="-2" relative="1" as="geometry">
            <mxPoint as="offset" />
          </mxGeometry>
        </mxCell>
        <mxCell id="MM2qQNJEAK_yeIbTaFc--22" value="Заполненная&lt;br&gt;форма договора" style="text;html=1;align=center;verticalAlign=middle;whiteSpace=wrap;rounded=0;" vertex="1" parent="1">
          <mxGeometry x="50" y="85" width="60" height="30" as="geometry" />
        </mxCell>
      </root>
    </mxGraphModel>
  </diagram>
</mxfile>
